<svg width="24" height="24" viewBox="0 0 24 24" fill="none" xmlns="http://www.w3.org/2000/svg">
<path d="M19.71 4.28957C19.32 3.89958 18.68 3.89957 18.29 4.28958L12 10.5896L5.71008 4.28958C5.32005 3.89959 4.68005 3.89957 4.29004 4.28957C3.81678 4.76284 3.90005 5.31958 4.29008 5.70957L10.59 11.9996L4.29 18.2896C3.89999 18.6796 3.90007 19.3196 4.29 19.7096C4.68007 20.0996 5.32007 20.0996 5.70999 19.7096L12 13.4096L18.29 19.7096C18.6801 20.0996 19.3201 20.0996 19.71 19.7096C20.1001 19.3196 20.1001 18.6796 19.71 18.2896L13.41 11.9996L19.71 5.70957C20.1 5.31958 20.1711 4.7507 19.71 4.28957Z" fill="white"/>
</svg>
