<svg width="254" height="126" viewBox="0 0 254 126" fill="none" xmlns="http://www.w3.org/2000/svg">
<path fill-rule="evenodd" clip-rule="evenodd" d="M43 0C19.2518 0 0 19.2518 0 43C0 66.7482 19.2518 86 43 86H100.926L127 126L153.074 86H211C234.748 86 254 66.7482 254 43C254 19.2518 234.748 0 211 0H43Z" fill="url(#paint0_linear_5028_3394)"/>
<path d="M62.8327 55.3618C60.4438 55.3618 58.3133 54.8794 56.4412 53.9146C54.5691 52.9499 53.099 51.5544 52.0309 49.7283C50.9627 47.8907 50.4287 45.6625 50.4287 43.0439V41.8897C50.4287 39.4778 50.9168 37.3473 51.893 35.4981C52.8808 33.6375 54.282 32.1847 56.0966 31.1395C57.9228 30.0829 60.0877 29.5546 62.5915 29.5546C64.3373 29.5546 65.9969 29.79 67.5703 30.2609C69.1553 30.7203 70.6254 31.5128 71.9806 32.6383V39.0988H67.5876L66.9846 35.3948C66.5941 35.1306 66.1806 34.9009 65.7442 34.7057C65.3192 34.5104 64.8598 34.3611 64.366 34.2577C63.8836 34.1544 63.361 34.1027 62.7982 34.1027C61.5234 34.1027 60.4093 34.4071 59.456 35.0158C58.5028 35.6245 57.762 36.5088 57.2337 37.6688C56.7168 38.8174 56.4584 40.2128 56.4584 41.8552V43.0439C56.4584 44.5829 56.7283 45.9382 57.2681 47.1097C57.8079 48.2697 58.5602 49.177 59.525 49.8317C60.5012 50.4863 61.6267 50.8136 62.9016 50.8136C63.5792 50.8136 64.2683 50.7447 64.9689 50.6069C65.6695 50.4576 66.3472 50.2624 67.0018 50.0212L67.6048 46.4722H72.0151V52.7948C71.0159 53.484 69.741 54.0869 68.1905 54.6038C66.64 55.1091 64.8541 55.3618 62.8327 55.3618ZM88.0004 55.3618C86.2662 55.3618 84.6697 55.0459 83.2111 54.4143C81.764 53.7711 80.5063 52.8752 79.4382 51.7267C78.3701 50.5782 77.5432 49.2344 76.9574 47.6954C76.3832 46.1449 76.096 44.4623 76.096 42.6477V42.2514C76.096 40.4483 76.3832 38.7772 76.9574 37.2382C77.5432 35.6991 78.3643 34.3554 79.421 33.2068C80.4891 32.0583 81.7467 31.1625 83.1939 30.5193C84.641 29.8761 86.2317 29.5546 87.966 29.5546C89.6658 29.5546 91.245 29.8761 92.7036 30.5193C94.1622 31.1625 95.4371 32.0583 96.5282 33.2068C97.6308 34.3554 98.4864 35.6991 99.0951 37.2382C99.7038 38.7772 100.008 40.4483 100.008 42.2514V42.6477C100.008 44.4623 99.7038 46.1449 99.0951 47.6954C98.4864 49.2344 97.6365 50.5782 96.5454 51.7267C95.4543 52.8752 94.1795 53.7711 92.7208 54.4143C91.2622 55.0459 89.6887 55.3618 88.0004 55.3618ZM88.0004 50.7792C89.2638 50.7792 90.3434 50.4404 91.2392 49.7628C92.1351 49.0851 92.8185 48.1376 93.2894 46.9202C93.7602 45.7027 93.9957 44.2786 93.9957 42.6477V42.217C93.9957 40.6205 93.7545 39.2193 93.2721 38.0134C92.8012 36.796 92.1179 35.8484 91.222 35.1708C90.3262 34.4932 89.2408 34.1544 87.966 34.1544C86.6222 34.1544 85.5196 34.4874 84.6582 35.1536C83.8083 35.8197 83.1766 36.7558 82.7632 37.9617C82.3497 39.1677 82.143 40.5861 82.143 42.217V42.6477C82.143 44.2786 82.3497 45.7085 82.7632 46.9374C83.1881 48.1548 83.8313 49.1024 84.6927 49.78C85.5656 50.4461 86.6681 50.7792 88.0004 50.7792ZM103.779 55V51.4683L106.38 50.917V34.0166L103.779 33.4653V29.9163H106.38H115.976C117.975 29.9163 119.709 30.2666 121.179 30.9672C122.649 31.6678 123.78 32.6441 124.573 33.896C125.377 35.1364 125.779 36.5835 125.779 38.2374C125.779 39.8912 125.377 41.3384 124.573 42.5788C123.78 43.8192 122.649 44.7839 121.179 45.473C119.709 46.1621 117.975 46.5067 115.976 46.5067H112.427V50.917L115.029 51.4683V55H103.779ZM112.427 41.8724H115.976C117.205 41.8724 118.135 41.5394 118.767 40.8732C119.41 40.1956 119.732 39.3285 119.732 38.2718C119.732 37.1807 119.41 36.2849 118.767 35.5843C118.135 34.8837 117.205 34.5334 115.976 34.5334H112.427V41.8724ZM129.016 55V51.4683L131.617 50.917V34.0166L129.016 33.4653V29.9163H140.248V33.4653L137.647 34.0166V50.917L140.248 51.4683V55H129.016ZM143.743 55V51.4683L146.345 50.917V34.0166L143.743 33.4653V29.9163H163.779V37.152H159.214L159.076 34.5678H152.392V39.719H160.403V44.3532H152.392V50.3313H159.403L159.541 47.6265H164.055V55H143.743ZM168.429 55V51.4683L171.065 50.8309V34.1199L168.429 33.4653V29.9163H171.065H180.178C182.441 29.9163 184.445 30.4447 186.191 31.5013C187.936 32.5465 189.303 33.9993 190.291 35.8599C191.278 37.709 191.772 39.8453 191.772 42.2687V42.6649C191.772 45.0883 191.278 47.2303 190.291 49.0909C189.303 50.94 187.936 52.3871 186.191 53.4323C184.445 54.4774 182.441 55 180.178 55H168.429ZM177.111 50.4174H179.868C181.143 50.4174 182.211 50.0958 183.072 49.4527C183.934 48.8095 184.583 47.9079 185.019 46.7479C185.467 45.5764 185.691 44.2154 185.691 42.6649V42.2514C185.691 40.7009 185.467 39.3457 185.019 38.1857C184.583 37.0257 183.934 36.1241 183.072 35.4809C182.211 34.8377 181.143 34.5162 179.868 34.5162H177.111V50.4174ZM196.973 46.0932V29.9163H203.02V46.0932H196.973ZM196.973 55V50.0384H203.02V55H196.973Z" fill="#000A12"/>
<defs>
<linearGradient id="paint0_linear_5028_3394" x1="0" y1="62.2025" x2="254" y2="62.2025" gradientUnits="userSpaceOnUse">
<stop stop-color="#FFA000"/>
<stop offset="1" stop-color="#FFFF7B"/>
</linearGradient>
</defs>
</svg>
