<svg width="92" height="92" viewBox="0 0 92 92" fill="none" xmlns="http://www.w3.org/2000/svg">
<rect x="0.404297" y="0.180176" width="91" height="91" rx="45.5" fill="#A153FF"/>
<path d="M39.9808 59.8955C38.6778 59.8955 37.5623 59.4315 36.6343 58.5036C35.7064 57.5757 35.2424 56.4602 35.2424 55.1571V26.7267C35.2424 25.4236 35.7064 24.3081 36.6343 23.3802C37.5623 22.4522 38.6778 21.9883 39.9808 21.9883H61.3036C62.6067 21.9883 63.7222 22.4522 64.6501 23.3802C65.5781 24.3081 66.0421 25.4236 66.0421 26.7267V55.1571C66.0421 56.4602 65.5781 57.5757 64.6501 58.5036C63.7222 59.4315 62.6067 59.8955 61.3036 59.8955H39.9808ZM30.504 69.3723C29.201 69.3723 28.0855 68.9083 27.1575 67.9804C26.2296 67.0525 25.7656 65.937 25.7656 64.6339V33.8343C25.7656 33.163 25.9927 32.6003 26.4468 32.1462C26.9009 31.6921 27.4636 31.4651 28.1348 31.4651C28.8061 31.4651 29.3688 31.6921 29.8229 32.1462C30.277 32.6003 30.504 33.163 30.504 33.8343V64.6339H54.196C54.8673 64.6339 55.43 64.861 55.8841 65.3151C56.3382 65.7692 56.5652 66.3318 56.5652 67.0031C56.5652 67.6744 56.3382 68.2371 55.8841 68.6912C55.43 69.1453 54.8673 69.3723 54.196 69.3723H30.504Z" fill="white"/>
</svg>
