<svg width="38" height="38" viewBox="0 0 38 38" fill="none" xmlns="http://www.w3.org/2000/svg">
<path d="M34.3059 14.6348V5.56979C34.3059 4.78354 33.3809 4.41354 32.8721 4.96854L29.8196 8.02104C26.7209 4.92229 22.2809 3.16479 17.4709 3.58104C10.3021 4.22854 4.38212 10.0098 3.59587 17.1785C2.57837 26.4748 9.79337 34.3373 18.9046 34.3373C26.7671 34.3373 33.2421 28.4635 34.2134 20.8323C34.3521 19.8148 33.5196 18.936 32.5021 18.936C31.6234 18.936 30.9296 19.5835 30.8371 20.416C30.0509 26.3823 24.9171 31.0073 18.7196 30.9148C12.3834 30.8223 7.01837 25.4573 6.87962 19.0748C6.78712 12.4148 12.2446 6.95729 18.9046 6.95729C22.1884 6.95729 25.1946 8.29854 27.3684 10.4723L23.8071 14.0335C23.2521 14.5885 23.6221 15.5135 24.4084 15.5135H33.4734C33.9359 15.5135 34.3059 15.1435 34.3059 14.6348Z" fill="#FDD835"/>
<path d="M15.6667 23.6531L15.5742 15.1893C15.5742 14.3568 16.453 13.8018 17.193 14.2643L24.4542 18.4731C25.148 18.8893 25.148 19.9068 24.4542 20.3231L17.3317 24.5781C16.5917 24.9943 15.713 24.4856 15.6667 23.6531Z" fill="#FDD835"/>
</svg>
